<svg xmlns="http://www.w3.org/2000/svg" viewBox="0 0 952.29 260.11"><defs><style>.cls-1{isolation:isolate;}.cls-2{fill:#063;}.cls-3{fill:#93c01f;}.cls-4{mix-blend-mode:multiply;}</style></defs><title>logo-caldex</title><g class="cls-1"><g id="Calque_1" data-name="Calque 1"><path class="cls-2" d="M50.07,264.32H114.6v30.56H53.06q-8.64,0-13.07,4.48t-4.43,13.22v49.7q0,8.65,4.43,13.07t13.07,4.43H114.6v30.77H50.07q-21.41,0-33.55-12.19T4.38,364.65V310q0-21.51,12.14-33.6T50.07,264.32Z" transform="translate(-4.38 -150.44)"/><path class="cls-3" d="M227.8,288.3l40.44,122.26h-33l-36.64-113.3a8.47,8.47,0,0,0-2.21-3.91,5.15,5.15,0,0,0-3.55-1.24,4.75,4.75,0,0,0-3.34,1.18,8.63,8.63,0,0,0-2.11,3.86L150.72,410.55H117.58L157.82,288.3q4.73-14.1,13-20.53t22-6.43q13.69,0,22.38,6.74T227.8,288.3Z" transform="translate(-4.38 -150.44)"/><path class="cls-2" d="M269.78,264.32H301V362.9q0,9.57,3.71,13.22T318,379.78h47.44v30.77h-49.7q-24.8,0-35.4-10.55t-10.6-35.35V264.32Z" transform="translate(-4.38 -150.44)"/><path class="cls-2" d="M377,264.32h85.41q21.51,0,33.7,12.09T508.33,310v54.65q0,21.41-12.19,33.65t-33.7,12.25H377V264.32Zm31.18,30.56v84.9h51.25q8.75,0,13.22-4.43t4.48-13.07v-49.7q0-8.75-4.53-13.22t-13.17-4.48H408.2Z" transform="translate(-4.38 -150.44)"/><path class="cls-2" d="M571.72,264.32h72.35v30.56h-70q-9.57,0-13.22,3.65T557.21,312v9.26h86.85V352H557.21V362.9q0,9.68,3.6,13.28t13.28,3.6h70v30.77H571.72q-24.7,0-35.19-10.55T526,364.65V310q0-24.8,10.44-35.25T571.72,264.32Z" transform="translate(-4.38 -150.44)"/><path class="cls-2" d="M652.92,264.32h37l29.33,45.48a11.71,11.71,0,0,0,2.32,2.57,3.49,3.49,0,0,0,2.11.82,3.22,3.22,0,0,0,2-.77,11.62,11.62,0,0,0,2.21-2.63l29.33-45.48h37l-47.65,69.57,53.62,76.67h-38L727.94,359.1a12.33,12.33,0,0,0-2.21-2.52,3.22,3.22,0,0,0-2-.77,3.5,3.5,0,0,0-2.11.82,12.62,12.62,0,0,0-2.32,2.47l-34.17,51.46H647l53.51-76.67Z" transform="translate(-4.38 -150.44)"/><path class="cls-2" d="M935.21,347.75l-1.67-.91c-1.45-.81-3.57-2-6.21-3.65s-5.81-3.65-9.38-6.06c-1.78-1.22-3.67-2.51-5.62-3.92-1-.7-2-1.43-3-2.17l-1.54-1.14-1.57-1.18-1.59-1.21L903,326.25c-1.09-.84-2.17-1.72-3.29-2.6-2.21-1.79-4.48-3.65-6.76-5.61s-4.6-4-6.93-6.13l-1.74-1.61-0.88-.81-0.87-.83L880.79,307,879,305.28c-4.67-4.56-9.29-9.46-13.77-14.58l-0.84-1-0.83-1-1.66-2c-0.28-.32-0.55-0.66-0.82-1l-0.81-1-0.82-1c-0.27-.33-0.55-0.66-0.81-1l-1.6-2-0.8-1-0.78-1-1.56-2c-0.52-.68-1-1.38-1.53-2.07l-0.76-1c-0.25-.35-0.51-0.69-0.75-1l-1.48-2.09-0.74-1L848,268.43l-1.43-2.11c-0.48-.7-0.93-1.42-1.4-2.12l-1.38-2.12-1.33-2.14-0.66-1.07c-0.22-.36-0.44-0.71-0.65-1.07-3.45-5.71-6.56-11.46-9.29-17.12s-5.1-11.22-7.11-16.56l-0.73-2-0.36-1c-0.12-.33-0.24-0.65-0.35-1L822,216.3c-0.11-.31-0.21-0.63-0.31-0.95l-0.29-.94-0.58-1.86c-0.4-1.22-.72-2.44-1.06-3.63-0.7-2.36-1.24-4.67-1.8-6.83-0.07-.27-0.13-0.54-0.19-0.81l-0.18-.8-0.36-1.57-0.35-1.53-0.09-.37-0.07-.37-0.15-.74c-0.38-2-.77-3.77-1-5.48L815.09,188l-0.1-.57,0-.28c0-.09,0-0.18,0-0.27l-0.14-1-0.5-3.59-0.37-3-0.31-2.54-3.24-26.2L789.85,167.1l-2,1.61-2.38,1.94-2.84,2.24-0.82.65-0.21.17-0.23.17-0.47.35-2,1.47c-1.37,1-2.91,2.08-4.54,3.23l-0.62.43-0.31.22-0.32.21-1.31.86-1.35.89-0.69.45c-0.23.15-.46,0.31-0.7,0.45-1.91,1.17-3.89,2.46-6,3.68-1.07.62-2.15,1.28-3.28,1.88l-1.7.94-0.86.48c-0.29.16-.58,0.32-0.88,0.47l-3.62,1.88c-0.31.16-.62,0.31-0.93,0.46l-0.94.46-1.91.93c-5.14,2.46-10.7,4.84-16.6,7s-12.12,4.18-18.56,5.92c-0.4.12-.81,0.21-1.21,0.32l-1.22.31-2.44.62-2.46.58c-0.82.19-1.65,0.4-2.48,0.56l-2.49.53-1.25.26L699,210l-2.52.49-1.26.23-1.26.22c-0.84.14-1.69,0.3-2.53,0.43l-2.54.39-1.27.2-1.27.17-2.55.35-1.27.16-1.28.15-1.27.15-1.27.14-2.55.26-1.27.13-1.27.11c-6.78.59-13.5,0.92-20,1l-2.44,0h-3.62l-1.2,0-2.38,0c-3.15-.09-6.24-0.2-9.25-0.38s-5.93-.39-8.76-0.63c-1.41-.13-2.81-0.25-4.17-0.4l-2-.21-2-.23-1.95-.24-1.9-.24c-1.25-.17-2.48-0.33-3.67-0.51-2.39-.34-4.65-0.71-6.77-1.07-4.24-.73-7.94-1.46-11-2.13s-5.4-1.25-7-1.67l-1.84-.5-0.63-.18,0.59,0.28,1.74,0.78c1.53,0.68,3.78,1.64,6.69,2.78s6.46,2.47,10.59,3.89c2.06,0.7,4.27,1.44,6.61,2.17,1.17,0.37,2.37.73,3.6,1.11l1.87,0.55,1.92,0.55,2,0.55,2,0.55c1.35,0.37,2.74.72,4.15,1.09,2.82,0.71,5.75,1.42,8.78,2.08s6.15,1.3,9.36,1.91l2.42,0.44,1.22,0.22,1.23,0.21,2.48,0.41,2.51,0.38c6.73,1,13.74,1.82,20.92,2.35l1.35,0.1,1.35,0.08,2.71,0.16,1.36,0.07,1.36,0.06,1.37,0.06,1.37,0,2.75,0.07,1.38,0H690l2.76,0c0.92,0,1.84,0,2.76,0l1.38,0,1.38,0,2.77-.08,1.38,0,1.38-.06,2.77-.14c0.92,0,1.84-.11,2.76-0.17l2.76-.19,2.75-.24,1.37-.12,1.37-.13c7.29-.74,14.47-1.82,21.39-3.18s13.57-3,19.83-4.84l2.33-.7,1.15-.35c0.38-.12.77-0.23,1.14-0.35l4.46-1.47,1.09-.38,1.07-.38,2.12-.76c1.41-.49,2.76-1,4.1-1.54,2.69-1,5.21-2.1,7.63-3.1l0.89-.39,0.88-.39,0.78-.35,0.32,0.79,0.36,0.89c0.12,0.3.24,0.6,0.37,0.9,1.05,2.4,2.12,4.94,3.36,7.53,0.61,1.3,1.21,2.63,1.89,4l1,2,0.51,1c0.17,0.34.34,0.69,0.52,1L797,232c0.18,0.35.38,0.7,0.58,1l0.59,1,1.19,2.12c3.25,5.66,6.91,11.45,11,17.22s8.48,11.52,13.23,17.11c0.29,0.35.6,0.7,0.9,1l0.91,1,1.81,2.08,1.86,2c0.62,0.68,1.23,1.37,1.87,2l1.9,2,1,1,1,1,1.94,2c0.32,0.33.65,0.65,1,1l1,1c0.66,0.64,1.31,1.3,2,1.93l2,1.9,1,0.95,1,0.93,2,1.85c0.34,0.31.68,0.61,1,.91l1,0.9,1,0.9c0.34,0.3.68,0.6,1,.89l2.07,1.76,1,0.88,1,0.86c5.55,4.59,11.16,8.87,16.72,12.79l2.08,1.46,2.08,1.42,1,0.7,1,0.69,2.05,1.36c2.74,1.78,5.43,3.5,8.08,5.1s5.25,3.13,7.77,4.58c1.27,0.71,2.51,1.42,3.75,2.09l1.83,1,1.8,1,1.77,0.93,1.73,0.9c1.15,0.58,2.27,1.16,3.37,1.7,2.19,1.09,4.29,2.09,6.27,3,4,1.83,7.44,3.34,10.33,4.52s5.18,2.05,6.75,2.62l1.8,0.64,0.62,0.21Z" transform="translate(-4.38 -150.44)"/><g class="cls-4"><path class="cls-3" d="M953.7,200.7c0.2-.82.56-1.71,0.76-2.53a61.15,61.15,0,0,0,1.82-9.32,77.22,77.22,0,0,0,.18-13.59c-5.06,1.06-9.88,2.47-15.13,4-7.8,2.4-14.91,4.7-22.59,7.15-9.86,3.38-18.95,6.42-28.28,11-0.16.07-.24,0.29-0.4,0.35l-3.4,1.73c-1.07.73-2.2,1.31-3.27,2-1.27.91-2.56,1.55-3.71,2.5a4.25,4.25,0,0,1-.85.82,18.71,18.71,0,0,0-3.58,2.81c-0.93,1-2.11,1.73-3,2.77a27.85,27.85,0,0,1-2.47,2.61c-1.82,2-3.32,4.08-5,6.25A79.64,79.64,0,0,0,860,227.2,66.08,66.08,0,0,0,855.14,240c-0.36,1.53-.67,3-1,4.48-0.09.22,0.09,0.42,0,.64a63.31,63.31,0,0,0-1.25,13,90.67,90.67,0,0,1,16.34-20.75c0.6-.53,1.25-1.17,1.85-1.71a91.29,91.29,0,0,1,13.89-9.87,79.57,79.57,0,0,1,8-4,97.54,97.54,0,0,1,14.79-4.74c0.42-.09.67-0.38,1.09-0.46a62.46,62.46,0,0,0,14.15-6c0.16-.07.42-0.09,0.58-0.15,1.64-.88,3-1.75,4.6-2.79,1.07-.73,2-1.39,3-2,0.2-.18.24-0.29,0.44-0.47a75.77,75.77,0,0,0,10.59-9,83.59,83.59,0,0,1-38.79,25,89.9,89.9,0,0,0-9.73,4.33c-0.16.07-.42,0.09-0.58,0.15a81.18,81.18,0,0,0-25.28,20.89c-0.24.29-.42,0.73-0.67,1a89,89,0,0,0-10,15.83,33.16,33.16,0,0,0,4.2-1.15,20.43,20.43,0,0,0,3.82-1.17c1-.35,2-0.6,3-0.84,8.84-2.76,16.88-5.45,25.48-8.56,7.29-2.74,14.06-5.17,21-8.42,0.31-.13.56-0.42,0.87-0.55a80.81,80.81,0,0,0,17.6-11.09,66.39,66.39,0,0,0,14.66-17.55l0.27-.67a59.84,59.84,0,0,0,5.51-12.73h0Z" transform="translate(-4.38 -150.44)"/></g></g></g></svg>